<svg width="36" height="37" viewBox="0 0 36 37" fill="none" xmlns="http://www.w3.org/2000/svg">
<path d="M13.2188 7.86875C14.0626 5.675 20.0813 1.625 20.0813 1.625C20.0813 1.625 21.9938 8.88125 21.2063 11.0188C20.4188 13.2125 18.0001 14.225 15.8063 13.3812C13.5563 12.4812 12.4313 10.0063 13.2188 7.86875Z" fill="#8CC63E"/>
<path d="M9.67493 12.2C8.66243 10.1187 10.1249 2.91875 10.1249 2.91875C10.1249 2.91875 16.5374 6.6875 17.4937 8.825C18.4499 10.9062 17.4937 13.3812 15.2999 14.3375C13.1624 15.2375 10.6312 14.2812 9.67493 12.2Z" fill="#64892F"/>
<path d="M11.6439 10.175C9.5627 9.21876 2.41895 10.625 2.41895 10.625C2.41895 10.625 6.1877 17.0938 8.26895 18.1063C10.3502 19.0625 12.8252 18.1063 13.7252 15.9125C14.6814 13.7188 13.7252 11.1313 11.6439 10.175Z" fill="#8CC63E"/>
<path d="M7.3125 13.775C5.175 14.6187 1.125 20.6937 1.125 20.6937C1.125 20.6937 8.325 22.6062 10.5188 21.8187C12.6562 21.0312 13.725 18.5562 12.825 16.3625C11.925 14.1125 9.50625 12.9875 7.3125 13.775Z" fill="#64892F"/>
<path d="M28.9687 9.89376C35.4374 16.4188 36.1687 30.5375 33.1312 33.6313C30.0374 36.725 16.0312 35.9375 9.50619 29.4125C4.72494 24.6313 6.97494 17.375 11.9249 12.3688C16.9312 7.36251 24.1874 5.11251 28.9687 9.89376Z" fill="#EF4D3C"/>
<path d="M22.8938 9.33125C22.6125 9.33125 22.3313 9.44375 22.1625 9.66875C21.8813 10.1188 22.1063 10.7938 22.7812 11.2438C23.1188 11.4688 23.4563 11.5813 23.7375 11.5813C24.0188 11.5813 24.3 11.4688 24.4125 11.2438C24.6938 10.7938 24.4688 10.1188 23.7937 9.66875C23.5688 9.44375 23.2313 9.33125 22.8938 9.33125ZM24.975 19.175C24.8063 19.175 24.6375 19.2313 24.4688 19.3438C24.075 19.6813 24.1875 20.4125 24.6375 21.0313C24.975 21.425 25.425 21.65 25.7625 21.65C25.9312 21.65 26.1 21.5938 26.2688 21.4813C26.6625 21.1438 26.55 20.4125 26.1 19.7938C25.7625 19.4 25.3125 19.175 24.975 19.175ZM20.1375 14.3375C19.9688 14.3375 19.8 14.3938 19.6313 14.5063C19.2375 14.8438 19.2938 15.575 19.8 16.1938C20.1375 16.5875 20.5875 16.8125 20.925 16.8125C21.0938 16.8125 21.2625 16.7563 21.4312 16.6438C21.825 16.3063 21.7688 15.575 21.2625 14.9563C20.925 14.5625 20.475 14.3375 20.1375 14.3375ZM28.4062 14.9C28.2938 14.9 28.1813 14.9 28.0688 14.9563C27.6188 15.1813 27.5625 15.9688 27.9 16.6438C28.1812 17.15 28.6313 17.4875 29.0813 17.4875C29.1938 17.4875 29.3063 17.4875 29.4188 17.4313C29.8688 17.2063 29.925 16.4188 29.5875 15.7438C29.3063 15.2375 28.8 14.9 28.4062 14.9ZM30.9938 22.325H30.825C30.3188 22.4375 30.0375 23.1688 30.2625 23.9C30.4313 24.575 30.8813 25.025 31.3875 25.025H31.5563C32.0625 24.9125 32.3438 24.1813 32.1188 23.45C31.8938 22.775 31.4438 22.325 30.9938 22.325ZM30.3188 29.3C30.15 29.3 29.925 29.3563 29.8125 29.4688C29.4188 29.8063 29.5313 30.5938 30.0375 31.1563C30.375 31.55 30.825 31.7188 31.1625 31.7188C31.3313 31.7188 31.5563 31.6625 31.6688 31.55C32.0625 31.2125 31.95 30.425 31.4438 29.8625C31.1063 29.525 30.7125 29.3 30.3188 29.3ZM17.8313 28.4563C17.55 28.4563 17.2688 28.5688 17.1 28.7938C16.8188 29.2438 17.1 29.9188 17.7188 30.3688C18.0563 30.5938 18.3938 30.7063 18.675 30.7063C18.9563 30.7063 19.2375 30.5938 19.4063 30.3688C19.6875 29.9188 19.4063 29.2438 18.7875 28.7938C18.5063 28.5688 18.1688 28.4563 17.8313 28.4563ZM11.3625 26.6C11.025 26.6 10.8 26.7125 10.6313 26.9375C10.35 27.3875 10.6313 28.0625 11.25 28.5125C11.5875 28.7375 11.925 28.85 12.2063 28.85C12.4875 28.85 12.7688 28.7375 12.9375 28.5125C13.2188 28.0625 12.9375 27.3875 12.3188 26.9375C11.9813 26.7125 11.6438 26.6 11.3625 26.6ZM23.4 31.1563C22.95 31.1563 22.6125 31.325 22.4438 31.6625C22.275 32.1688 22.6687 32.7875 23.4 33.0688C23.625 33.1813 23.9063 33.2375 24.1313 33.2375C24.5813 33.2375 24.9187 33.0688 25.0875 32.7313C25.2562 32.225 24.8625 31.6063 24.1313 31.325C23.9063 31.2125 23.625 31.1563 23.4 31.1563ZM24.6938 25.5313C24.3563 25.5313 24.075 25.6438 23.9062 25.925C23.625 26.375 23.9625 27.05 24.6375 27.4438C24.9187 27.6125 25.2563 27.725 25.5375 27.725C25.875 27.725 26.1562 27.6125 26.325 27.3313C26.6063 26.8813 26.2688 26.2063 25.5938 25.8125C25.2563 25.6438 24.975 25.5313 24.6938 25.5313ZM18.675 21.5375C18.3938 21.5375 18.1687 21.65 18.0563 21.8188C17.7188 22.2125 17.9438 22.9438 18.5063 23.45C18.8438 23.7313 19.2375 23.8438 19.575 23.8438C19.8562 23.8438 20.0813 23.7313 20.1938 23.5625C20.5313 23.1688 20.3062 22.4375 19.7437 21.9313C19.4062 21.7063 19.0125 21.5375 18.675 21.5375ZM13.7813 13.9438C13.5563 13.9438 13.3875 14 13.2188 14.1688C12.825 14.5625 12.9938 15.2938 13.5 15.8C13.8375 16.1375 14.2313 16.3063 14.625 16.3063C14.85 16.3063 15.0188 16.25 15.1875 16.0813C15.5813 15.6875 15.4125 14.9563 14.9063 14.45C14.5688 14.1125 14.175 13.9438 13.7813 13.9438ZM12.2063 20.0188C11.925 20.0188 11.7 20.1313 11.5313 20.3C11.1938 20.6938 11.4188 21.425 12.0375 21.9313C12.375 22.2125 12.7688 22.325 13.05 22.325C13.3313 22.325 13.5563 22.2125 13.725 22.0438C14.0625 21.65 13.8375 20.9188 13.2188 20.4125C12.8813 20.1875 12.4875 20.0188 12.2063 20.0188Z" fill="#FFF0F0"/>
</svg>
