<svg width="36" height="36" viewBox="0 0 36 36" fill="none" xmlns="http://www.w3.org/2000/svg">
<path d="M1.13322 25.1522C0.795716 26.8425 2.72509 33.3422 12.791 34.6416C17.9632 35.3081 23.0426 33.4716 27.0645 30.3919C31.0863 27.3122 33.5529 23.3438 34.3995 19.7184C35.7017 14.1356 34.2054 5.70657 23.1326 5.20875C11.8095 4.69969 8.00415 16.5375 5.6304 20.0166C2.7729 24.21 1.43978 23.625 1.13322 25.1522Z" fill="url(#paint0_radial_53_5700)"/>
<path d="M11.7817 10.2178C11.7817 10.2178 15.5983 12.1584 21.5158 11.7478C26.3055 11.4159 28.1899 9.06469 28.1899 9.06469C28.1899 9.06469 30.2964 9.64407 31.6942 9.27282C32.2539 9.12376 32.3749 8.82001 31.6914 8.11126C30.6592 7.03688 27.1155 5.04844 21.8899 5.38313C15.3508 5.80782 11.7817 10.2178 11.7817 10.2178Z" fill="#DC0D27"/>
<path d="M7.32372 21.5494C7.98747 22.6547 9.95341 21.2288 11.3372 19.8422C13.334 17.8397 14.2425 16.0059 14.774 15.075C15.3056 14.1441 16.0256 12.1388 14.5743 11.8153C13.064 11.4806 12.6168 13.3481 11.8406 14.7234C11.0643 16.0988 9.98434 17.7356 9.11809 18.8016C8.1984 19.935 6.92997 20.8941 7.32372 21.5494Z" fill="#FFEBC9"/>
<path d="M28.7887 7.02563C28.5975 7.86094 29.3653 8.44594 29.8968 8.86501C30.4284 9.28407 31.6265 9.44157 32.0259 9.15188C32.4253 8.86501 31.9809 8.02126 32.2706 7.51219C32.5575 7.00313 33.0693 6.38157 32.4478 5.95969C31.9275 5.60532 31.2271 5.47313 30.5859 5.60532C29.9446 5.73751 29.9418 6.22688 29.6775 6.35907C29.4075 6.49407 28.8534 6.73876 28.7887 7.02563Z" fill="#6D4C41"/>
<path d="M28.1646 7.27875C27.4559 7.58813 25.369 9.23344 20.4977 9.6075C15.1258 10.0209 8.81741 9.38251 7.76554 9.23344C6.71366 9.08438 4.91929 9.01407 4.9446 8.56407C4.98116 7.88907 5.67866 8.10563 7.08491 7.70063C8.77523 7.21125 10.5021 6.53625 11.8184 5.74875C13.8377 4.53657 17.9496 1.50469 21.9968 1.42875C26.4293 1.34719 27.8552 2.74219 28.9437 3.90657C30.0321 5.07094 30.049 6.29157 29.748 6.78094C29.4499 7.27032 29.028 6.90469 28.1646 7.27875Z" fill="#518E30"/>
<path d="M14.1919 7.00875C14.296 7.13812 16.2591 7.21125 17.3532 7.17469C19.8507 7.09312 21.8278 6.42937 24.2888 6.15375C26.7497 5.87812 28.8957 6.15375 28.9772 6.05812C29.1263 5.88375 27.616 3.83062 22.6744 4.38469C20.8547 4.59 18.5147 5.51531 16.9003 6.15937C15.871 6.57844 14.0935 6.885 14.1919 7.00875Z" fill="#366918"/>
<defs>
<radialGradient id="paint0_radial_53_5700" cx="0" cy="0" r="1" gradientUnits="userSpaceOnUse" gradientTransform="translate(21.2128 -17.3287) scale(51.7396 51.7396)">
<stop offset="0.532" stop-color="#F33A1F"/>
<stop offset="0.615" stop-color="#F86922"/>
<stop offset="0.696" stop-color="#FD9124"/>
<stop offset="0.739" stop-color="#FFA025"/>
<stop offset="0.793" stop-color="#FCA025"/>
<stop offset="0.839" stop-color="#F1A124"/>
<stop offset="0.883" stop-color="#DFA222"/>
<stop offset="0.925" stop-color="#C7A41F"/>
<stop offset="0.962" stop-color="#AAA61C"/>
</radialGradient>
</defs>
</svg>
