<svg width="36" height="37" viewBox="0 0 36 37" fill="none" xmlns="http://www.w3.org/2000/svg">
<g clip-path="url(#clip0_53_5674)">
<path d="M7.17219 11.5L6 12.7028L13.2873 19.5C13.2873 19.5 29.9282 15.7129 29.9282 15.57C29.9282 15.4271 30 12.8785 30 12.8785C30 12.8785 29.7787 12.5867 29.6322 12.4319C29.4857 12.2771 28.7082 11.5863 28.7082 11.5863L7.17219 11.5Z" fill="#AC5811"/>
<path d="M11 8.22079L11.4 10.3198L23.723 11.5L28 8.7462L20.462 7.5L11 8.22079Z" fill="#8A460A"/>
<path d="M8.96754 12.5C8.96754 12.5 7.04827 12.0824 6.3342 11.1842C5.91238 10.6525 5.88828 9.8834 6.27093 9.18343C6.79518 8.23112 8.2625 7.7835 8.91933 7.64832C9.57616 7.51313 13.017 6.33851 19.064 6.51876C25.111 6.69901 31.1129 8.03285 30.9984 10.1538C30.8839 12.2747 28.4163 12.2537 28.4163 12.2537L28.0547 8.61865L24.7645 8.6547C24.7645 8.6547 21.1701 8.26116 18.7266 8.16803C15.8733 8.06289 13.8094 8.32425 13.8094 8.32425L9.82322 9.02421L8.96754 12.5Z" fill="#E17F13"/>
<path d="M20 11.1962C20.0844 11.1033 26.3434 4.06746 26.3434 4.06746C26.3434 4.06746 26.2534 3.02914 26.3659 2.50533C26.5572 1.61888 27.4433 0.431777 28.2056 0.503065C28.9679 0.574353 31.103 3.08803 30.9961 3.76371C30.8892 4.4394 30.2563 5.23286 29.6206 5.48702C28.9876 5.74428 28.3322 5.67299 28.3322 5.67299L23.0437 11.5L20 11.1962Z" fill="#AE5614"/>
<path d="M27.2769 3.49276C27.755 3.58006 28.8484 2.85252 28.9772 2.68462C29.106 2.51673 28.6537 2.26377 28.5049 1.97723C28.3561 1.69068 28.3532 1.45563 28.0526 1.50712C27.7521 1.55861 27.2369 1.99961 27.1052 2.3645C26.9106 2.90401 26.9964 3.44351 27.2769 3.49276Z" fill="#DF8116"/>
<path d="M6.25877 12.5C6.25877 12.5 3.86279 15.0133 4.00619 18.653C4.15258 22.2927 5.64035 26.5914 6.83834 28.8112C8.03633 31.0309 9.70634 34.2363 10.3606 34.6736C11.0149 35.111 12.9567 36.4141 17.5127 36.495C22.8962 36.5908 25.4146 35.2937 26.0301 34.7485C26.6485 34.2033 28.187 31.8727 29.6031 28.23C31.0192 24.5874 32.0349 21.421 31.9991 18.0359C31.9632 14.6509 30.1677 12.7756 30.1677 12.7756C30.1677 12.7756 25.6267 15.3309 17.9668 15.1481C10.3068 14.9654 6.25877 12.5 6.25877 12.5Z" fill="#E07F14"/>
<path d="M17.323 33.4938C24.4341 33.6316 27.8517 31.4175 27.8517 31.4175C27.8517 31.4175 28.5568 29.738 28.9798 28.6359C29.4179 27.4845 30 25.6804 30 25.6804C30 25.6804 27.2366 28.3898 17.311 28.4358C9.3537 28.4719 5 25.5 5 25.5C5 25.5 5.71411 27.5468 6.32621 28.8163C7.19035 30.6073 7.74544 31.6635 7.74544 31.6635C7.74544 31.6635 11.268 33.379 17.323 33.4938Z" fill="#AC5811"/>
<path d="M14.1152 7.63915C14.1773 7.11016 13.8991 5.30609 10.3984 5.51707C6.62842 5.74335 6.90954 8.77664 7.09005 9.36067C7.53097 10.8039 8.33883 11.2075 8.38618 11.9659C8.43648 12.7242 7.82393 14.4946 7.69964 17.583C7.57536 20.6713 7.86832 22.1115 7.96893 22.5396C8.15832 23.3407 8.72648 23.8544 9.33904 23.4508C9.95159 23.0472 9.65863 21.8577 9.58465 21.1483C9.51067 20.4389 9.56985 17.2221 9.79179 16.0082C10.0108 14.7943 10.2801 14.0146 10.9903 14.2194C11.7005 14.4243 11.4726 15.4578 11.4223 16.317C11.372 17.1763 11.3483 18.8213 11.446 19.6316C11.5436 20.442 11.955 20.9342 12.6149 20.8945C13.4997 20.8425 13.6979 20.1117 13.7453 18.8978C13.7956 17.6839 13.7216 16.8491 13.9169 15.6596C14.1122 14.4702 14.6745 13.8647 15.1154 13.6354C15.5563 13.4091 16.5595 13.2318 18.0775 13.2807C19.5956 13.3296 20.7941 13.4336 21.2587 14.1155C21.7233 14.7973 21.8712 16.4424 22.7264 17.0998C23.5846 17.7572 24.5611 17.0998 24.8807 17.8092C25.2003 18.5186 25.3956 20.1882 25.4193 22.1359C25.443 24.0837 25.224 26.6125 25.076 27.7011C24.9281 28.7896 24.567 30.3307 25.0523 31.1166C25.4282 31.722 26.2508 31.5966 26.6178 30.8383C26.9847 30.08 27.2066 28.4104 27.3753 26.4871C27.5469 24.5638 27.6209 18.4942 27.6949 17.7603C27.7689 17.0264 28.2927 15.3722 29.0413 12.9535C29.8551 10.3208 30.7813 8.19872 28.8904 7.00926C27.8813 6.37324 27.251 6.46803 27.251 6.46803L25.4015 8.38219C25.4015 8.38219 26.455 8.55954 26.4461 8.97845C26.4343 9.70619 21.9422 10.3544 18.8558 10.4064C15.7694 10.4584 11.4756 9.83767 11.4756 9.02737C11.4756 8.21707 13.9909 8.67573 14.1152 7.63915Z" fill="#FFB803"/>
<path d="M26.521 7.94311C26.2928 8.42917 26.8077 8.52401 26.8691 8.88856C26.9276 9.25311 26.7257 9.82215 26.9656 9.88143C27.2055 9.9407 28.1855 9.60283 27.969 8.54772C27.7525 7.49262 26.6702 7.62006 26.521 7.94311ZM22.25 13.8055C21.9487 13.8796 21.9604 14.8191 22.3817 15.6727C22.8468 16.6181 23.6132 16.63 23.7917 16.3158C23.9701 16.0016 23.4816 15.6727 23.1569 15.0918C22.68 14.2293 22.5484 13.7343 22.25 13.8055ZM10.8062 10.6787C10.5722 11.0729 11.0695 11.7071 12.3976 12.0954C13.7257 12.4836 14.419 12.2169 14.4541 11.719C14.4833 11.3129 13.3425 11.2211 12.6375 11.0166C11.9295 10.8121 11.128 10.1333 10.8062 10.6787ZM9.7531 6.58273C9.39329 6.3812 8.13833 6.48493 8.00669 7.61117C7.9043 8.48252 9.0013 9.84883 9.64486 9.43982C10.0281 9.19679 9.35818 8.49438 9.54833 7.91347C9.70337 7.44816 10.2563 6.86133 9.7531 6.58273Z" fill="white"/>
<path d="M12.1863 18.5084C11.7722 18.5854 11.8268 19.4793 11.9198 19.804C12.0129 20.1287 12.2119 20.6509 12.6998 20.5204C13.0721 20.42 13.024 19.7806 12.9437 19.4056C12.8603 19.0273 12.6484 18.4214 12.1863 18.5084ZM8.35068 21.7289C7.93984 21.7858 7.95268 22.221 8.07464 22.7566C8.16131 23.1416 8.45339 23.5835 8.80324 23.4864C9.1531 23.3893 9.08248 22.8905 8.97977 22.5256C8.88669 22.2076 8.78077 21.6686 8.35068 21.7289Z" fill="#FFFCFF"/>
<path d="M25.5406 28.5005C24.9869 28.5221 25.0276 29.0568 25.0072 29.5852C24.9869 30.1137 24.9747 30.5 25.4795 30.5C25.9885 30.5 25.9641 29.7985 25.9763 29.474C25.9885 29.1495 26.131 28.4789 25.5406 28.5005Z" fill="white"/>
</g>
<defs>
<clipPath id="clip0_53_5674">
<rect width="36" height="36" fill="white" transform="translate(0 0.5)"/>
</clipPath>
</defs>
</svg>
