<svg width="36" height="36" viewBox="0 0 36 36" fill="none" xmlns="http://www.w3.org/2000/svg">
<path d="M14.5967 28.1869L11.8039 22.68C11.8039 22.68 11.3314 19.5834 11.6464 15.4828C11.922 11.9053 12.6167 9.38812 14.4757 7.14656C15.9186 5.40843 18.2136 3.64499 20.4945 2.81812C22.7754 1.99124 23.0117 1.95187 23.0117 2.22749C23.0117 2.50312 19.4342 4.12031 16.9564 7.57968C14.4786 11.0391 14.5967 14.3437 14.4392 16.5066C14.2817 18.6694 14.5967 28.1869 14.5967 28.1869Z" fill="#717F35"/>
<path d="M5.47303 13.5591C6.9749 16.2506 8.40084 21.2766 10.0462 25.0678C11.579 28.6059 13.1821 31.3341 14.5968 32.67C16.0115 34.0059 17.3024 33.8878 17.8621 33.4181C18.703 32.7094 18.2615 30.7434 18.2558 29.6044C18.2446 27.5681 18.6327 26.1619 19.2402 25.1213C19.7746 24.2072 20.7758 23.2791 21.8362 23.5969C23.1102 23.9794 23.9596 25.2394 24.3533 25.83C24.7471 26.4206 25.3377 27.5991 25.6105 27.5991C25.8833 27.5991 25.4362 24.5588 24.1396 22.7756C22.8571 21.0122 21.0149 20.6663 19.3612 21.3863C15.6683 22.995 15.5643 27.8775 15.5643 27.8775C15.5643 27.8775 13.2243 25.9059 11.6127 20.7563C11.219 19.4991 9.98147 15.0328 8.7524 13.2103C6.8624 10.4063 4.84303 9.82126 3.70397 9.42751C2.5649 9.03376 1.18678 8.64001 1.1474 8.87626C1.10803 9.11532 3.78271 10.53 5.47303 13.5591Z" fill="#94A61D"/>
<path d="M16.7177 29.6972C16.6052 28.9153 16.2509 26.8706 16.3915 24.3028C16.4871 22.5169 16.9793 19.5497 19.6849 18.5766C21.8618 17.7947 23.5606 17.7863 25.8781 18.9C28.0268 19.9322 26.9918 18.5541 25.9821 18.0309C25.2818 17.6681 22.2977 16.1606 19.3418 17.1647C15.9049 18.3319 14.9881 22.4381 14.9881 22.4381C14.9881 22.4381 14.7377 17.9719 15.6574 15.7697C16.5771 13.5647 18.2309 11.7619 17.7781 11.6128C17.6093 11.5566 15.5224 12.4088 14.3468 15.1003C13.0924 17.9747 13.0362 20.5706 13.1177 22.05C13.1993 23.5294 13.4102 24.9834 13.4102 24.9834C13.4102 24.9834 13.9952 26.3419 14.6843 27.2222C15.3227 28.0406 16.7515 29.9363 16.7177 29.6972Z" fill="#FFBD13"/>
<path d="M18.9087 7.55156C18.7708 7.52344 17.3083 8.08594 16.5715 9.85219C15.8346 11.6184 16.4618 13.0753 16.4618 13.0753C16.4618 13.0753 18.4305 11.3625 18.799 10.2966C19.1674 9.22781 19.0943 7.58813 18.9087 7.55156Z" fill="#FFBD13"/>
<path d="M22.5927 12.5578C22.6124 12.4678 21.1021 11.1966 19.9405 11.1769C18.7818 11.1572 17.3643 12.1528 17.3643 12.1528C17.3643 12.1528 17.848 13.3116 19.6846 13.5141C21.0093 13.6631 22.5561 12.7238 22.5927 12.5578ZM19.4624 10.4231C19.5918 10.5328 21.0824 10.3669 21.9458 9.34594C22.8543 8.27157 22.8683 5.83875 22.5927 5.83875C22.2636 5.83875 22.0414 6.1875 21.4705 6.53907C20.8996 6.88782 19.8505 7.92 19.5749 8.71032C19.2964 9.50344 19.333 10.3134 19.4624 10.4231ZM20.9277 10.5975C20.9586 10.9238 22.1118 12.0009 23.3914 12.0572C24.6711 12.1134 25.8018 11.6297 25.8018 11.4384C25.8018 11.2472 24.9861 9.81563 23.5714 9.675C22.0414 9.52594 20.9136 10.4484 20.9277 10.5975ZM22.8121 9.20813C22.9639 9.46969 24.7246 9.14063 25.5514 8.01C26.3136 6.96938 26.1702 5.79375 26.0886 5.64188C26.0071 5.49 24.7808 5.61375 23.8021 6.74438C22.9921 7.68094 22.6743 8.96625 22.8121 9.20813ZM24.643 9.20813C24.6346 9.45563 25.3714 10.4625 26.2124 10.8478C27.478 11.4272 29.0896 11.0813 29.1599 10.8619C29.2274 10.6425 28.4708 9.1575 27.4527 8.71313C26.2546 8.19 24.6571 8.80875 24.643 9.20813ZM26.4486 8.0775C26.4486 8.40938 28.4314 8.35313 29.1346 7.87219C29.8377 7.39125 30.5661 6.09469 30.7321 5.9175C30.898 5.74032 30.9261 5.56032 30.5661 5.45063C30.2089 5.34094 28.4455 5.28469 27.4274 6.04407C26.4093 6.80344 26.4486 8.01 26.4486 8.0775ZM28.6789 8.51907C28.4961 8.62313 28.7746 8.97469 28.9124 9.26157C29.0502 9.55125 29.5171 10.7213 30.538 11.2303C31.5139 11.7169 32.8386 11.6859 32.8921 11.6156C32.9483 11.5481 32.6614 9.91125 31.6658 9.16594C30.4536 8.2575 29.0221 8.32782 28.6789 8.51907ZM30.178 7.88625C30.2118 8.04657 31.5561 8.7525 32.698 8.85094C33.8399 8.94938 34.9705 7.80469 34.9846 7.68094C34.9986 7.55719 33.9524 6.44063 32.7683 6.48282C31.213 6.53625 30.1386 7.69219 30.178 7.88625ZM25.1408 13.9725C25.1183 13.7109 22.978 13.6688 21.8924 14.7994C20.8039 15.9272 20.7758 17.0016 20.7758 17.0016L21.5605 17.5106C21.5605 17.5106 23.0624 16.8497 23.8724 16.065C24.8174 15.1509 25.1661 14.2875 25.1408 13.9725Z" fill="#FFBD13"/>
<path d="M23.1921 21.24C23.538 21.2541 23.4677 19.7944 23.1358 18.8859C22.7843 17.9213 21.8561 17.235 21.8561 17.235L20.7002 17.4825C20.7002 17.4825 20.7255 18.6272 21.2824 19.62C22.0221 20.9306 22.8743 21.2259 23.1921 21.24ZM23.5155 17.7159C23.5155 17.7159 23.4002 18.8944 23.943 19.9884C24.5083 21.1303 25.7458 21.7913 26.0214 21.6816C26.2971 21.5719 26.1593 20.1797 25.9793 19.5188C25.7993 18.8578 24.9752 17.8256 24.9752 17.8256L23.5155 17.7159ZM23.3636 17.1394C23.3636 17.1394 24.2439 15.7078 25.3183 15.2663C26.8511 14.6363 28.803 15.4181 28.8143 15.7078C28.8283 15.9975 27.4924 16.9734 26.8314 17.2238C26.1705 17.4713 24.8205 17.7047 24.8205 17.7047L23.3636 17.1394ZM28.8705 17.1788C27.7005 17.2294 26.5446 17.8959 26.5164 18.2672C26.4883 18.6384 27.5205 19.4653 28.9661 19.4653C30.4118 19.4653 31.3061 18.5006 31.3061 18.3628C31.3089 18.225 30.4821 17.1113 28.8705 17.1788Z" fill="#FFBD13"/>
<path d="M26.8624 18.7819C26.5558 18.7256 26.2296 20.2838 26.7527 21.5213C27.2758 22.7616 28.6792 23.3803 28.7917 23.4225C29.1517 23.5575 29.0533 21.3581 28.6258 20.4609C28.2349 19.6453 27.3011 18.8663 26.8624 18.7819ZM28.8705 19.8759C28.7496 20.0869 29.0224 21.5016 29.6552 22.3256C30.6452 23.6194 32.147 23.715 32.2989 23.6475C32.4508 23.58 32.2708 21.6084 31.3089 20.6747C30.3836 19.7775 28.9802 19.6819 28.8705 19.8759Z" fill="#FFBD13"/>
</svg>
