<svg width="36" height="37" viewBox="0 0 36 37" fill="none" xmlns="http://www.w3.org/2000/svg">
<path d="M1.08014 23.5681C0.632953 18.8712 3.31045 15.1447 5.58014 13.6428C7.90045 12.1072 8.98327 11.8878 9.50639 11.5925C11.9167 10.2369 13.6126 7.21343 16.8526 4.98312C20.5398 2.44625 25.5826 2.06937 28.6764 3.76531C31.4973 5.31219 34.3886 8.68156 33.6151 15.3894C32.8417 22.0972 15.9892 33.1362 13.098 33.2937C10.2067 33.4512 1.75514 30.6669 1.08014 23.5681Z" fill="#B8885A"/>
<path d="M19.8677 22.0691C18.543 22.8453 13.5677 27.7756 7.85836 27.6406C2.14898 27.5056 1.27148 24.7466 1.27148 24.7466C1.27148 24.7466 2.08992 29.5559 6.02742 32.405C10.4824 35.6281 15.2074 34.3597 16.5855 34.0503C18.6302 33.5919 20.4359 32.6525 22.2443 31.6709C24.0527 30.6894 30.4821 27.5928 33.0077 22.7188C35.7949 17.3413 35.1312 13.0325 33.739 9.89938C32.2652 6.58344 30.828 5.36563 30.828 5.36563C30.828 5.36563 32.1668 12.3097 29.3318 16.1741C25.3099 21.6556 21.1924 21.2928 19.8677 22.0691Z" fill="#875B52"/>
<path d="M17.7834 27.8291C17.8003 28.1834 19.0631 28.1553 19.98 28.0063C20.9503 27.8488 21.7519 27.8347 21.8869 27.4606C22.0219 27.0866 20.5425 25.7844 19.6706 25.8294C19.125 25.8603 17.7581 27.3116 17.7834 27.8291ZM24.3534 28.5125C24.5419 28.7853 25.3238 28.3691 25.6106 27.995C25.8975 27.6209 26.2209 26.8981 25.9622 26.7378C25.7034 26.5775 24.9638 26.5803 24.5981 27.0303C24.2353 27.4831 24.165 28.2397 24.3534 28.5125ZM32.9766 11.2663C32.67 10.7263 32.1216 12.0031 32.0963 12.4447C32.0709 12.8863 32.4028 13.145 32.7713 13.2238C33.1341 13.2997 33.9609 13.0016 32.9766 11.2663ZM8.17876 30.6163C7.93126 31.0353 8.33907 31.3391 8.75251 31.6203C9.07876 31.8425 9.87751 31.9606 10.035 31.7131C10.1953 31.4656 9.88032 31.1309 9.28407 30.6303C8.87626 30.29 8.42626 30.1972 8.17876 30.6163Z" fill="#513531"/>
<path d="M4.89356 24.1925C4.542 24.4372 4.82606 25.5228 4.87387 25.7309C4.92169 25.9391 6.32231 26.0122 6.53044 25.6916C6.73856 25.3709 6.29981 24.9069 5.99044 24.5834C5.68106 24.2628 5.24512 23.9478 4.89356 24.1925ZM7.39669 21.6641C7.82981 22.2519 8.6145 21.5459 8.74106 21.02C8.87606 20.4547 8.40075 20.0863 7.86356 20.4209C7.43325 20.6853 7.14356 21.3238 7.39669 21.6641ZM12.9992 10.4731C12.4367 10.2369 12.2229 10.7319 12.012 11.2325C11.8011 11.7331 11.1204 12.6444 11.5479 12.7709C11.9754 12.8975 12.9823 12.8384 13.2326 12.4306C13.4829 12.02 13.5617 10.7122 12.9992 10.4731Z" fill="#875B52"/>
<path d="M3.39476 22.8537C4.01351 23.1322 4.97538 21.8159 5.41695 21.1831C6.06663 20.2522 7.04538 19.0766 9.33757 17.6562C12.4819 15.71 15.7641 16.1994 17.4516 14.7341C19.1391 13.2687 20.1179 10.3634 21.406 8.92343C23.7601 6.29093 26.2041 8.08812 26.5444 6.81406C26.8848 5.54 25.141 4.45718 23.0823 4.46C21.0263 4.46562 18.6751 5.22218 16.5376 8.67875C14.4001 12.1353 13.8685 13.1928 11.8857 13.8172C9.90288 14.4444 7.43913 15.2712 5.06538 17.9122C3.74632 19.3803 2.36257 22.3897 3.39476 22.8537Z" fill="#D9AC82"/>
<path d="M23.279 10.0119C23.4 10.9119 24.6375 11.4012 25.3659 11.4097C26.0493 11.4181 26.5415 10.9737 26.5331 10.5209C26.5247 9.97812 25.6415 9.72781 25.2956 9.59281C24.6178 9.33124 24.4603 8.76312 23.8275 8.96562C23.2537 9.15124 23.2622 9.87406 23.279 10.0119Z" fill="#875B52"/>
</svg>
