<svg width="36" height="36" viewBox="0 0 36 36" fill="none" xmlns="http://www.w3.org/2000/svg">
<path d="M8.77686 4.45799L10.7919 32H25.1249L27.3139 4.43799L8.77686 4.45799Z" fill="#CCD6DD"/>
<path d="M25.0002 31.281L10.9062 31.438L9.88818 16.126H26.1342L25.0002 31.281Z" fill="white"/>
<path d="M23.9059 35.175H12.0939C10.3819 35.175 9.17989 34.022 8.95889 32.164L6.98389 4.448C6.96189 4.13717 7.06427 3.83033 7.26849 3.59498C7.47272 3.35962 7.76206 3.21503 8.07289 3.193C8.22688 3.18129 8.38167 3.20022 8.52831 3.24869C8.67495 3.29715 8.81053 3.37419 8.92722 3.47535C9.04391 3.57652 9.1394 3.6998 9.20817 3.83808C9.27694 3.97636 9.31763 4.1269 9.32789 4.281L11.2969 31.941C11.4039 32.825 11.8699 32.825 12.0939 32.825H23.9059C24.4219 32.825 24.6139 32.825 24.7059 31.908L26.6719 4.281C26.6961 3.97175 26.8416 3.68463 27.0767 3.48226C27.3118 3.27989 27.6174 3.17869 27.9268 3.20074C28.2362 3.22278 28.5243 3.36628 28.7284 3.59994C28.9324 3.83359 29.0357 4.13844 29.0159 4.448L27.0469 32.107C26.7949 34.648 25.1999 35.175 23.9059 35.175Z" fill="#8899A6"/>
<path d="M18.0002 33H15.3732C9.84116 33 9.20616 30.316 8.91316 26.526C8.58516 22.295 7.16016 4.43201 7.16016 4.43201L9.15316 4.27301C9.15316 4.27301 10.5802 22.141 10.9072 26.372C11.1722 29.811 11.4632 31 15.3732 31H18.0002C18.2654 31 18.5197 31.1054 18.7073 31.2929C18.8948 31.4804 19.0002 31.7348 19.0002 32C19.0002 32.2652 18.8948 32.5196 18.7073 32.7071C18.5197 32.8947 18.2654 33 18.0002 33Z" fill="#8899A6"/>
<path d="M20.627 33H18C17.7348 33 17.4804 32.8947 17.2929 32.7071C17.1054 32.5196 17 32.2652 17 32C17 31.7348 17.1054 31.4804 17.2929 31.2929C17.4804 31.1054 17.7348 31 18 31H20.627C24.537 31 24.827 29.811 25.093 26.372C25.421 22.14 26.847 4.27301 26.847 4.27301L28.841 4.43201C28.841 4.43201 27.415 22.296 27.087 26.526C26.794 30.316 26.16 33 20.627 33Z" fill="#8899A6"/>
<path d="M29 4.083C29 5.786 26.27 7.166 18 7.166C9.731 7.166 7 5.786 7 4.083C7 2.38 9.73 1 18 1C26.27 1 29 2.38 29 4.083Z" fill="#CCD6DD"/>
<path d="M28.5318 4.12799C28.3845 3.90746 28.1556 3.7545 27.8955 3.70274C27.6354 3.65098 27.3654 3.70466 27.1448 3.85199C25.0588 5.24499 19.8708 5.42299 18.0478 5.37499C18.0378 5.37399 18.0288 5.37999 18.0188 5.37899C18.0098 5.37899 18.0028 5.37499 17.9938 5.37499C16.1748 5.42399 10.9858 5.24799 8.89685 3.85199C8.6763 3.70632 8.40706 3.65388 8.14797 3.70614C7.88888 3.75841 7.66102 3.91112 7.5142 4.13089C7.36737 4.35067 7.31352 4.61963 7.36443 4.87899C7.41533 5.13835 7.56684 5.36701 7.78585 5.51499C10.3558 7.23199 15.7028 7.38099 17.4738 7.38099C17.7628 7.38099 17.9508 7.37699 18.0208 7.37499C18.0918 7.37699 18.2788 7.38099 18.5678 7.38099C20.3388 7.38099 25.6858 7.23299 28.2558 5.51499C28.3652 5.44221 28.4592 5.34856 28.5323 5.23938C28.6054 5.13021 28.6563 5.00768 28.6819 4.87881C28.7076 4.74994 28.7075 4.61728 28.6817 4.48843C28.656 4.35959 28.6051 4.2371 28.5318 4.12799Z" fill="white"/>
<path d="M17.9911 17.524C22.3138 17.524 25.8181 16.8686 25.8181 16.06C25.8181 15.2515 22.3138 14.596 17.9911 14.596C13.6683 14.596 10.1641 15.2515 10.1641 16.06C10.1641 16.8686 13.6683 17.524 17.9911 17.524Z" fill="#E1E8ED"/>
<path d="M11.042 31.542H25.209V33.375H11.042V31.542Z" fill="#8899A6"/>
</svg>
